<?xml version="1.0" encoding="utf-8"?>
<!-- Generator: Adobe Illustrator 22.0.0, SVG Export Plug-In . SVG Version: 6.00 Build 0)  -->
<svg version="1.1" id="Layer_1" xmlns="http://www.w3.org/2000/svg" xmlns:xlink="http://www.w3.org/1999/xlink" x="0px" y="0px"
	 viewBox="0 0 1000 1000" style="enable-background:new 0 0 1000 1000;" xml:space="preserve">
<g>
	<path d="M198.1,388.5c20.1,0,39.8-3.2,58.9-9.3l113,114.5l123.8-125.4l-113-114.6c21.8-69,3.9-145.4-46.9-196.8
		C297.7,20.2,249.6,0,198.6,0c-28.5,0-57.2,6.6-82.8,19c-3.9,1.9-6.6,5.5-7.3,9.8c-0.7,4.3,0.7,8.6,3.7,11.7L231,161
		c8.8,8.9,13.6,20.7,13.6,33.2c0,12.6-4.8,24.3-13.6,33.2c-17.5,17.8-48,17.8-65.5,0l-119-120.5c-3-3.1-7.4-4.4-11.5-3.7
		c-4.2,0.7-7.8,3.5-9.7,7.4c-34.9,74.2-20,163.1,37.3,221.1C98.8,368.3,146.9,388.5,198.1,388.5z"/>
	<path d="M802,611.5c-20.1,0-39.9,3.2-58.9,9.4L618,494.1L494.2,619.6l125.1,126.7c-21.7,69-3.9,145.4,46.9,196.8
		c36.1,36.6,84.2,56.8,135.3,56.8c28.6,0,57.2-6.6,82.8-19c3.9-1.9,6.6-5.5,7.3-9.8s-0.7-8.6-3.7-11.7L769,838.9
		c-8.8-8.9-13.6-20.6-13.6-33.2c0-12.5,4.8-24.3,13.6-33.2c17.5-17.8,48-17.8,65.5,0l118.9,120.5c3,3.1,7.3,4.4,11.5,3.7
		c4.2-0.7,7.8-3.5,9.7-7.4c34.9-74.2,20-163.1-37.3-221.1C901.2,631.7,853.1,611.5,802,611.5z"/>
	<path d="M751.1,325.7c0,0,20.7,18.4,37.8,9.8c19.3-9.8,73.6,44.4,90.9,57.1c0.1,0,0.2,0,0.4,0.1l-9.5,9.6
		c-12.5,12.5-12.5,33,0,45.6c12.5,12.6,32.5,12.6,45,0l75-75.9c12.4-12.6,12.4-33.1,0-45.7c-12.4-12.6-32.6-12.6-45,0l-12.5,12.6
		c-10.4-14.4-27.6-39.1-25.4-47.2c9.1-35.7-62.7-120.1-62.7-120.1C666.6-9.1,547.4-5,490.7,14.7c-22.8,7.9-18.5,13,5.1,17.2
		c172.1,30.4,193.4,133.3,164.2,173c-11.2,15.3,5.1,33.8,5.1,33.8l6.2,6.2L380.8,539.3c3.9,2.4,7.8,5.1,11.1,8.6l48.9,49.5
		c3.3,3.4,6,7.2,8.4,11.2l290.5-294.4L751.1,325.7z"/>
	<path d="M372.4,567.7c-10.7-10.9-29-11.6-40.4-1.5L9.1,859.5c-11.5,10.1-12.2,27.3-1.4,38.1l87.9,89.1
		c10.8,10.9,27.7,10.3,37.6-1.3l289.5-327.3c9.9-11.6,9.3-30-1.5-40.9L372.4,567.7z"/>
</g>
</svg>
