<?xml version="1.0" encoding="utf-8"?>
<!-- Generator: Adobe Illustrator 22.0.0, SVG Export Plug-In . SVG Version: 6.00 Build 0)  -->
<svg version="1.1" id="Layer_1" xmlns="http://www.w3.org/2000/svg" xmlns:xlink="http://www.w3.org/1999/xlink" x="0px" y="0px"
	 viewBox="0 0 1000 1000" style="enable-background:new 0 0 1000 1000;" xml:space="preserve">
<g transform="translate(1 1)">
	<g>
		<g>
			<path d="M714-1H284C127.3-1-1,127.3-1,284v430c0,156.7,128.3,285,285,285h430c156.7,0,285-128.3,285-285V284
				C999,127.3,870.7-1,714-1z M965.7,714c0,138.3-113.3,251.7-251.7,251.7H284C145.7,965.7,32.3,852.3,32.3,714V284
				C32.3,145.7,145.7,32.3,284,32.3h430c138.3,0,251.7,113.3,251.7,251.7V714z"/>
			<path d="M714,99H284C182.3,99,99,182.3,99,284v430c0,101.7,83.3,185,185,185h430c101.7,0,185-83.3,185-185V284
				C899,182.3,815.7,99,714,99z M865.7,714c0,83.3-68.3,151.7-151.7,151.7H284c-83.3,0-151.7-68.3-151.7-151.7V284
				c0-83.3,68.3-151.7,151.7-151.7h430c83.3,0,151.7,68.3,151.7,151.7L865.7,714L865.7,714z"/>
			<path d="M499,232.3c-146.7,0-266.7,120-266.7,266.7s120,266.7,266.7,266.7s266.7-120,266.7-266.7S645.7,232.3,499,232.3z
				 M499,732.3c-128.3,0-233.3-105-233.3-233.3s105-233.3,233.3-233.3s233.3,105,233.3,233.3S627.3,732.3,499,732.3z"/>
			<path d="M499,315.7c-101.7,0-183.3,81.7-183.3,183.3c0,101.7,81.7,183.3,183.3,183.3S682.3,600.7,682.3,499
				S600.7,315.7,499,315.7z M499,649c-83.3,0-150-66.7-150-150s66.7-150,150-150s150,66.7,150,150S582.3,649,499,649z"/>
			<path d="M765.7,182.3c-28.3,0-50,21.7-50,50c0,28.3,21.7,50,50,50c28.3,0,50-21.7,50-50S794,182.3,765.7,182.3z"/>
		</g>
	</g>
</g>
</svg>
