<?xml version="1.0" encoding="utf-8"?>
<!-- Generator: Adobe Illustrator 22.0.0, SVG Export Plug-In . SVG Version: 6.00 Build 0)  -->
<svg version="1.1" id="Capa_1" xmlns="http://www.w3.org/2000/svg" xmlns:xlink="http://www.w3.org/1999/xlink" x="0px" y="0px"
	 viewBox="0 0 1000 1000" style="enable-background:new 0 0 1000 1000;" xml:space="preserve">
<g>
	<g>
		<g>
			<path d="M977.6,791L823.1,636.2c-30.8-30.7-81.7-29.8-113.5,2.1l-77.8,78c-4.9-2.7-10-5.6-15.4-8.6
				C567.3,680.4,500.1,643,429.3,572c-71-71.1-108.3-138.6-135.6-187.9c-2.9-5.2-5.6-10.3-8.4-15l52.2-52.3l25.7-25.8
				c31.9-32,32.8-83,2.1-113.8L210.8,22.5C180.2-8.3,129.2-7.4,97.3,24.6L53.8,68.5l1.2,1.2c-14.6,18.7-26.8,40.2-35.9,63.4
				c-8.4,22.1-13.6,43.2-16,64.3C-17.2,366.8,60,521.7,269.7,731.8c289.8,290.4,523.4,268.5,533.4,267.4c21.9-2.6,43-7.9,64.3-16.2
				c23-9,44.4-21.2,63-35.8l1,0.8l44.1-43.3C1007.3,872.9,1008.3,821.8,977.6,791z"/>
		</g>
	</g>
</g>
</svg>
