<?xml version="1.0" encoding="utf-8"?>
<!-- Generator: Adobe Illustrator 22.0.0, SVG Export Plug-In . SVG Version: 6.00 Build 0)  -->
<svg version="1.1" id="Capa_1" xmlns="http://www.w3.org/2000/svg" xmlns:xlink="http://www.w3.org/1999/xlink" x="0px" y="0px"
	 viewBox="0 0 1000 1000" style="enable-background:new 0 0 1000 1000;" xml:space="preserve">
<path d="M978.3,453.2c19.7-20,26.6-49.4,18.1-76.7c-8.5-27.3-30.7-46.8-57.9-51l-242.1-36.7c-10.3-1.6-19.2-8.3-23.8-18.1
	l-108.2-229C552.2,16,527.5,0,500,0c-27.5,0-52.1,16-64.3,41.7l-108.3,229c-4.6,9.8-13.5,16.5-23.8,18.1L61.5,325.5
	c-27.2,4.1-49.4,23.6-57.9,51c-8.5,27.3-1.5,56.7,18.1,76.7l175.2,178.2c7.5,7.6,10.9,18.6,9.1,29.3l-41.3,251.7
	c-3.7,22.2,1.9,43.7,15.6,60.7c21.3,26.5,58.6,34.5,88.4,18.2l216.5-118.8c9.1-5,20.4-4.9,29.5,0l216.6,118.8
	c10.5,5.8,21.8,8.7,33.4,8.7c21.2,0,41.2-9.8,55-26.9c13.8-17,19.3-38.6,15.6-60.7L794,660.7c-1.8-10.7,1.7-21.7,9.1-29.3
	L978.3,453.2z"/>
</svg>
