<?xml version="1.0" encoding="utf-8"?>
<!-- Generator: Adobe Illustrator 22.0.0, SVG Export Plug-In . SVG Version: 6.00 Build 0)  -->
<svg version="1.1" id="Layer_1" xmlns="http://www.w3.org/2000/svg" xmlns:xlink="http://www.w3.org/1999/xlink" x="0px" y="0px"
	 viewBox="0 0 1000 1000" style="enable-background:new 0 0 1000 1000;" xml:space="preserve">
<g>
	<g>
		<g>
			<rect x="292.5" y="601.5" width="311.2" height="34.6"/>
			<rect x="292.5" y="524.8" width="311.2" height="34.6"/>
			<rect x="292.5" y="448.1" width="311.2" height="34.6"/>
			<rect x="292.5" y="682.7" width="311.2" height="34.6"/>
			<path d="M500,0C223.9,0,0,223.9,0,500s223.9,500,500,500s500-223.9,500-500S776.1,0,500,0z M672.2,706.5v60.8
				c0,33.6-27.2,60.8-60.7,60.8H284.8c-33.6,0-60.8-27.2-60.8-60.8V319.2c0-33.6,27.2-60.8,60.8-60.8h326.6
				c33.6,0,60.7,27.2,60.7,60.8c0,0,0,60.7,0,60.7L672.2,706.5L672.2,706.5z M750,628.7v60.7c0,27.5-18.2,50.6-43.2,58.2v-41.1V380
				v-60.7c0-52.6-42.8-95.3-95.3-95.3H304.5c7.5-25,30.7-43.2,58.2-43.2h326.6c33.5,0,60.7,27.2,60.7,60.8v60.7h0V628.7z"/>
			<rect x="292.5" y="371.4" width="311.2" height="34.6"/>
		</g>
	</g>
</g>
</svg>
