<?xml version="1.0" encoding="utf-8"?>
<!-- Generator: Adobe Illustrator 22.0.0, SVG Export Plug-In . SVG Version: 6.00 Build 0)  -->
<svg version="1.1" id="Layer_1" xmlns="http://www.w3.org/2000/svg" xmlns:xlink="http://www.w3.org/1999/xlink" x="0px" y="0px"
	 viewBox="0 0 1000 1000" style="enable-background:new 0 0 1000 1000;" xml:space="preserve">
<g transform="translate(1 1)">
	<g>
		<path d="M915.7-1H82.3C35.7-1-1,35.7-1,82.3v833.3c0,46.7,36.7,83.3,83.3,83.3h383.3h200h250c46.7,0,83.3-36.7,83.3-83.3V82.3
			C999,35.7,962.3-1,915.7-1z M499,965.7V632.3H365.7V499H499V382.3c0-95,73.3-175,166.7-183.3h150v133.3H682.3
			c-28.3,0-50,21.7-50,50V499H799v133.3H632.3v333.3L499,965.7L499,965.7z M965.7,915.7c0,28.3-21.7,50-50,50h-250v-300h166.7v-200
			H665.7v-83.3c0-10,6.7-16.7,16.7-16.7H849v-200H664c-111.7,10-198.3,105-198.3,216.7v83.3H332.3v200h133.3v300H82.3
			c-28.3,0-50-21.7-50-50V82.3c0-28.3,21.7-50,50-50h833.3c28.3,0,50,21.7,50,50L965.7,915.7L965.7,915.7z"/>
	</g>
</g>
</svg>
