<?xml version="1.0" encoding="utf-8"?>
<!-- Generator: Adobe Illustrator 22.0.0, SVG Export Plug-In . SVG Version: 6.00 Build 0)  -->
<svg version="1.1" id="Capa_1" xmlns="http://www.w3.org/2000/svg" xmlns:xlink="http://www.w3.org/1999/xlink" x="0px" y="0px"
	 viewBox="0 0 1000 1000" style="enable-background:new 0 0 1000 1000;" xml:space="preserve">
<g>
	<g>
		<g>
			<path d="M983.2,451.9L831.7,289.2v-188c0-34-25.7-61.5-57.4-61.5c-31.6,0-57.3,27.6-57.3,61.5V166L604.2,44.9
				C548.4-15,451.4-14.9,395.7,45L16.8,451.9c-22.4,24.1-22.4,63,0,87.1c22.4,24.1,58.7,24.1,81.1,0l378.9-407
				c12.3-13.2,34.1-13.2,46.4,0l379,407c11.2,12,25.9,18,40.5,18c14.7,0,29.4-6,40.6-18C1005.6,514.9,1005.6,476,983.2,451.9z"/>
			<path d="M519.9,248.8c-11-11.8-28.8-11.8-39.8,0L146.8,606.7c-5.3,5.6-8.2,13.4-8.2,21.4v261c0,61.2,46.2,110.9,103.3,110.9h165
				V725.5h186.3V1000h165c57,0,103.3-49.7,103.3-110.9v-261c0-8-3-15.8-8.2-21.4L519.9,248.8z"/>
		</g>
	</g>
</g>
</svg>
