<?xml version="1.0" encoding="utf-8"?>
<!-- Generator: Adobe Illustrator 22.0.0, SVG Export Plug-In . SVG Version: 6.00 Build 0)  -->
<svg version="1.1" id="Layer_1" xmlns="http://www.w3.org/2000/svg" xmlns:xlink="http://www.w3.org/1999/xlink" x="0px" y="0px"
	 viewBox="0 0 1000 1000" style="enable-background:new 0 0 1000 1000;" xml:space="preserve">
<g transform="translate(1)">
	<g>
		<g>
			<path d="M134,0C97.3,0,64,13.6,39,39C12.3,66.1-1,100-1,135.6c0,37.3,15,71.2,40,96.6s60,40.7,93.3,39c0,0,1.7,0,3.3,0
				c33.3,0,65-13.6,90-39s40-59.3,40-96.6c1.7-35.6-13.3-69.5-38.3-94.9C202.3,13.6,169,0,134,0z M202.3,208.5
				c-18.3,18.6-43.3,30.5-70,28.8c-25,0-51.7-10.2-70-28.8c-20-18.6-30-45.8-30-72.9s10-52.5,30-72.9c18.3-18.6,43.3-28.8,71.7-28.8
				c25,0,50,10.2,68.3,28.8c20,20.3,30,45.8,30,72.9S222.3,189.8,202.3,208.5z"/>
			<path d="M199,305.1H64c-26.7,0-48.3,22-48.3,50.8v593.2c0,27.1,23.3,50.8,50,50.8H199c26.7,0,50-23.7,50-49.2V355.9
				C249,328.8,225.7,305.1,199,305.1z M215.7,950.8c0,8.5-8.3,15.3-16.7,15.3H65.7c-8.3,0-16.7-8.5-16.7-16.9V355.9
				c0-8.5,6.7-16.9,15-16.9h135c8.3,0,16.7,8.5,16.7,16.9V950.8z"/>
			<path d="M765.7,288.1h-35c-65,0-126.7,28.8-166.7,74.6V339c0-16.9-16.7-33.9-33.3-33.9H364c-15,0-33.3,13.6-33.3,32.2v632.2
				c0,18.6,18.3,30.5,33.3,30.5h183.3c15,0,33.3-11.9,33.3-30.5V603.4c0-55.9,40-100,91.7-100c26.7,0,51.7,10.2,70,28.8
				c16.7,15.3,23.3,39,23.3,69.5v364.4c0,16.9,16.7,33.9,33.3,33.9h166.7c16.7,0,33.3-16.9,33.3-33.9V528.8
				C999,393.2,897.3,288.1,765.7,288.1z M965.7,964.4l-1.7,1.7H800.7L799,601.7c0-40.7-10-71.2-31.7-93.2c-25-25.4-58.3-39-93.3-39
				c-70,1.7-125,59.3-125,133.9v362.7H365.7V339h165l1.7,1.7v106.8l45-45.8l1.7-1.7c33.3-47.5,91.7-78,153.3-78h35
				c111.7,0,198.3,91.5,198.3,206.8V964.4z"/>
		</g>
	</g>
</g>
</svg>
