<?xml version="1.0" encoding="utf-8"?>
<!-- Generator: Adobe Illustrator 22.0.0, SVG Export Plug-In . SVG Version: 6.00 Build 0)  -->
<svg version="1.1" id="Capa_1" xmlns="http://www.w3.org/2000/svg" xmlns:xlink="http://www.w3.org/1999/xlink" x="0px" y="0px"
	 viewBox="0 0 1000 1000" style="enable-background:new 0 0 1000 1000;" xml:space="preserve">
<g>
	<g>
		<path d="M910.7,1000c22.5,0,42-9.4,58.5-28.1L685.9,611.3c-6.8,6.2-13.4,12.2-19.6,17.9c-21.2,19.9-38.4,35.4-51.6,46.5
			c-13.2,11.1-30.8,22.5-52.7,34.1c-22,11.6-42.4,17.4-61.4,17.4H500h-0.6c-19,0-39.4-5.8-61.4-17.4c-22-11.6-39.5-23-52.7-34.1
			c-13.2-11.1-30.4-26.6-51.6-46.5c-5.9-5.5-12.5-11.6-19.6-18L30.8,971.9c16.6,18.7,36,28.1,58.5,28.1H910.7z"/>
		<path d="M56.4,384.2c-21.2-18-40-38.6-56.4-61.8v548.6l249.7-317.8C199.8,508.9,135.4,452.6,56.4,384.2z"/>
		<path d="M944.2,384.2c-76,65.5-140.6,121.8-193.8,169.1L1000,871.1V322.4C984,345.2,965.4,365.8,944.2,384.2z"/>
		<path d="M910.7,0H89.3C60.6,0,38.6,12.3,23.2,36.9C7.7,61.5,0,92.3,0,129.3c0,29.8,10.2,62.1,30.7,97c20.5,34.8,42.2,62.1,65.3,82
			c12.6,11.4,50.8,45.1,114.4,101.2c34.3,30.3,64.2,56.7,89.9,79.5c21.9,19.4,40.7,36.2,56.3,50.1c1.8,1.6,4.6,4.2,8.3,7.6
			c4,3.7,9.1,8.3,15.4,14.1c12.1,11.1,22.1,20.1,30.1,27c8,6.9,17.7,14.6,29,23.1c11.3,8.5,22,14.9,32.1,19.2
			c10,4.3,19.3,6.4,27.9,6.4h0.6h0.6c8.6,0,17.9-2.1,27.9-6.4c10-4.3,20.7-10.6,32.1-19.2c11.3-8.5,21-16.2,29-23.1
			c8-6.9,18-15.9,30.1-27c6.3-5.8,11.4-10.4,15.4-14.1c3.7-3.4,6.5-6,8.3-7.6c12.1-10.7,31-27.5,56.5-49.9
			c46.3-40.9,114.4-101.1,204.7-180.9c27.2-24.1,49.8-53.3,68.1-87.4c18.2-34.1,27.3-69.8,27.3-107.2c0-31.3-8.8-58-26.5-80.3
			C955.8,11.1,934.9,0,910.7,0z"/>
	</g>
</g>
</svg>
