<?xml version="1.0" encoding="utf-8"?>
<!-- Generator: Adobe Illustrator 22.0.0, SVG Export Plug-In . SVG Version: 6.00 Build 0)  -->
<svg version="1.1" id="Layer_1" xmlns="http://www.w3.org/2000/svg" xmlns:xlink="http://www.w3.org/1999/xlink" x="0px" y="0px"
	 viewBox="0 0 1000 1000" style="enable-background:new 0 0 1000 1000;" xml:space="preserve">
<g>
	<g>
		<g>
			<path d="M970,586.7c5-28.3,8.3-56.7,8.3-85c0-261.7-213.3-475-475-475c-28.3,0-56.7,3.3-85,8.3C376.7,11.7,330,0,281.7,0
				C126.7,0,0,126.7,0,281.7c0,46.7,11.7,95,35,136.7c-5,28.3-8.3,56.7-8.3,85c0,261.7,213.3,475,475,475c28.3,0,56.7-3.3,85-8.3
				c36.7,20,81.7,30,136.7,30c155,0,276.7-121.7,276.7-276.7C1000,668.3,990,623.3,970,586.7z M723.3,966.7
				c-51.7,0-91.7-10-125-28.3l-5-3.3l-6.7,1.7c-28.3,5-56.7,8.3-85,8.3C258.3,945,60,746.7,60,503.3c0-28.3,3.3-56.7,8.3-85l1.7-6.7
				l-3.3-5C45,368.3,33.3,325,33.3,281.7C33.3,145,145,33.3,281.7,33.3c43.3,0,86.7,11.7,125,33.3l5,3.3l6.7-1.7
				c28.3-5,56.7-8.3,85-8.3C746.7,60,945,258.3,945,501.7c0,28.3-3.3,56.7-8.3,85l-1.7,6.7l3.3,5c18.3,33.3,28.3,73.3,28.3,125
				C966.7,860,860,966.7,723.3,966.7z"/>
			<path d="M543.3,420c-125-25-143.3-56.7-145-65c-3.3-11.7,5-21.7,13.3-28.3c21.7-18.3,73.3-33.3,118.3-25
				c16.7,3.3,40,11.7,51.7,31.7c28.3,55,58.3,98.3,120,83.3c20-5,35-18.3,45-38.3c11.7-26.7,11.7-63.3-3.3-91.7
				C726.7,255,655,173.3,515,173.3c-133.3,0-286.7,48.3-286.7,185c0,108.3,95,185,260,208.3c83.3,11.7,110,38.3,118.3,53.3
				c5,10,5,20,1.7,30C595,681.7,550,711.7,480,705c-80-8.3-106.7-80-111.7-95c-13.3-41.7-58.3-48.3-81.7-46.7
				c-11.7,1.7-38.3,10-55,35c-10,15-20,43.3-5,86.7c18.3,56.7,80,150,285,150c171.7,0,275-108.3,276.7-208.3
				C788.3,516.7,713.3,453.3,543.3,420z M510,801.7c-136.7,0-226.7-45-253.3-126.7c-8.3-25-8.3-45,1.7-58.3c10-13.3,25-20,31.7-20
				c0,0,1.7,0,5,0c10,0,35,1.7,38.3,21.7c6.7,18.3,40,108.3,140,118.3c88.3,8.3,145-33.3,163.3-76.7c8.3-20,6.7-41.7-3.3-60
				c-13.3-25-50-56.7-141.7-70C405,516.7,260,478.3,260,355c0-111.7,136.7-151.7,253.3-151.7c123.3,0,185,68.3,198.3,95
				c8.3,18.3,10,45,1.7,63.3c-5,11.7-13.3,18.3-23.3,20c-30,6.7-48.3,0-83.3-66.7c-13.3-25-40-41.7-75-48.3
				c-51.7-8.3-115,5-146.7,33.3c-20,18.3-28.3,40-23.3,61.7c11.7,40,66.7,68.3,171.7,88.3C725,488.3,751.7,558.3,751.7,623.3
				C751.7,710,661.7,801.7,510,801.7z"/>
		</g>
	</g>
</g>
</svg>
