<?xml version="1.0" encoding="utf-8"?>
<!-- Generator: Adobe Illustrator 22.0.0, SVG Export Plug-In . SVG Version: 6.00 Build 0)  -->
<svg version="1.1" id="Layer_1" xmlns="http://www.w3.org/2000/svg" xmlns:xlink="http://www.w3.org/1999/xlink" x="0px" y="0px"
	 viewBox="0 0 1000 1000" style="enable-background:new 0 0 1000 1000;" xml:space="preserve">
<path d="M412.1,533.3h175.8V600H412.1V533.3z"/>
<path d="M811.3,600H646.5v33.3c0,18.4-13.1,33.3-29.3,33.3H382.8c-16.2,0-29.3-14.9-29.3-33.3V600H188.7
	c-37.9,0-71.4-27.5-83.4-68.4L0,172v728c0,55.1,39.4,100,87.9,100h824.2c48.5,0,87.9-44.9,87.9-100V172L894.7,531.6
	C882.7,572.5,849.2,600,811.3,600z"/>
<path d="M617.2,0H382.8c-48.5,0-87.9,44.9-87.9,100v33.3H50.4l110.5,377.2c4,13.6,15.2,22.8,27.8,22.8h164.8V500
	c0-18.4,13.1-33.3,29.3-33.3h234.4c16.2,0,29.3,14.9,29.3,33.3v33.3h164.8c12.6,0,23.8-9.1,27.8-22.8l110.5-377.2H705.1V100
	C705.1,44.9,665.6,0,617.2,0z M353.5,133.3V100c0-18.4,13.1-33.3,29.3-33.3h234.4c16.2,0,29.3,14.9,29.3,33.3v33.3H353.5z"/>
</svg>
