<?xml version="1.0" encoding="utf-8"?>
<!-- Generator: Adobe Illustrator 22.0.0, SVG Export Plug-In . SVG Version: 6.00 Build 0)  -->
<svg version="1.1" id="Layer_1" xmlns="http://www.w3.org/2000/svg" xmlns:xlink="http://www.w3.org/1999/xlink" x="0px" y="0px"
	 viewBox="0 0 1000 1000" style="enable-background:new 0 0 1000 1000;" xml:space="preserve">
<g>
	<g>
		<path d="M994.3,112.6c-5.1-6.2-13.6-8.3-20.4-6.2L940,120.9c20.4-29.2,33.9-60.4,42.4-89.6c3.4-10.4,1.7-18.7-3.4-25
			c-5.1-6.2-13.6-8.3-20.4-4.2c-47.5,25-88.3,45.8-122.2,58.3c0,2.1-1.7,0-3.4,0C805.9,41.7,739.7,0.1,692.1,0.1
			C571.6,2.2,474.9,127.2,474.9,279.2v8.3C298.4,245.9,201.6,183.4,96.4,48l-17-20.8l-10.2,25c-57.7,135.4-17,258.3,49.2,341.6
			c-30.6-6.2-50.9-18.7-69.6-37.5c-6.8-6.2-15.3-8.3-23.8-2.1c-6.8,4.2-10.2,16.7-8.5,27.1c23.8,97.9,83.2,177.1,147.7,225
			c-30.6,0-56-4.2-81.5-25c-6.8-4.2-17-4.2-23.8,2.1c-6.8,6.3-10.2,16.7-6.8,27.1c30.6,106.2,90,162.5,185,177.1
			c-49.2,35.4-113.7,64.6-213.9,66.7c-10.2,0-18.7,8.3-22.1,18.7c-3.4,12.5,0,22.9,6.8,31.2C69.2,964.6,205,1000,373,1000
			c298.7,0,543.1-327.1,543.1-729.1v-6.2c37.3-22.9,67.9-66.7,83.2-127.1C1001.1,129.2,999.4,118.8,994.3,112.6z M892.4,231.3
			l-10.2,4.2v35.4c0,379.1-229.1,687.4-509.2,687.4c-154.5,0-258-31.2-314-64.6c117.1-10.4,185-56.2,237.6-106.2l42.4-37.5h-50.9
			c-96.7,0-156.2-33.3-190.1-112.5c30.6,12.5,62.8,12.5,98.4,10.4c13.6-2.1,27.2-2.1,40.7-2.1l5.1-41.7
			c-64.5-22.9-140.9-93.7-178.2-189.6c33.9,18.7,71.3,22.9,105.2,22.9H222L179.6,400c-35.6-31.2-140.9-141.7-90-300
			c108.6,131.2,212.2,191.6,398.9,233.3l20.4,4.2v-58.3c0-129.2,81.5-235.4,183.3-237.5c39-2.1,103.5,41.7,122.2,54.2
			c10.2,6.2,20.4,8.3,30.6,4.2c25.5-10.4,56-25,90-41.7c-15.3,31.2-35.6,60.4-62.8,87.5c-6.8,6.2-8.5,18.7-5.1,29.2
			c3.4,10.4,13.6,14.6,22.1,10.4l66.2-27.1C943.4,185.5,924.7,216.7,892.4,231.3z"/>
	</g>
</g>
</svg>
